<?xml version="1.0" encoding="UTF-8" standalone="no"?>
<!-- Created with Inkscape (http://www.inkscape.org/) -->

<svg
   width="210mm"
   height="210mm"
   viewBox="0 0 210 210"
   version="1.1"
   id="svg1"
   xml:space="preserve"
   inkscape:version="1.4.2 (ebf0e940d0, 2025-05-08)"
   sodipodi:docname="DrawAnywhere.svg"
   inkscape:export-filename="DrawAnywhere.png"
   inkscape:export-xdpi="247.71046"
   inkscape:export-ydpi="247.71046"
   xmlns:inkscape="http://www.inkscape.org/namespaces/inkscape"
   xmlns:sodipodi="http://sodipodi.sourceforge.net/DTD/sodipodi-0.dtd"
   xmlns="http://www.w3.org/2000/svg"
   xmlns:svg="http://www.w3.org/2000/svg"><sodipodi:namedview
     id="namedview1"
     pagecolor="#ffffff"
     bordercolor="#000000"
     borderopacity="0.25"
     inkscape:showpageshadow="2"
     inkscape:pageopacity="0.0"
     inkscape:pagecheckerboard="0"
     inkscape:deskcolor="#d1d1d1"
     inkscape:document-units="mm"
     inkscape:zoom="0.97110491"
     inkscape:cx="169.39467"
     inkscape:cy="439.19045"
     inkscape:window-width="2048"
     inkscape:window-height="1208"
     inkscape:window-x="0"
     inkscape:window-y="0"
     inkscape:window-maximized="1"
     inkscape:current-layer="layer1" /><defs
     id="defs1" /><g
     inkscape:label="Layer 1"
     inkscape:groupmode="layer"
     id="layer1"><rect
       style="fill:#1c274c;stroke-width:0.264583;fill-opacity:1"
       id="rect1"
       width="210"
       height="210"
       x="0"
       y="0" /><g
       style="opacity:1;fill:none"
       id="g1"
       transform="matrix(6.25,0,0,6.25,30,30.000008)"><path
         d="m 21.1938,2.80624 c 1.0749,1.075 1.0749,2.81791 0,3.8929 L 20.6982,7.19469 C 20.5539,7.16345 20.3722,7.11589 20.1651,7.04404 19.6108,6.85172 18.8823,6.48827 18.197,5.803 17.5117,5.11774 17.1483,4.38923 16.956,3.8349 16.8841,3.62781 16.8366,3.44609 16.8053,3.30179 l 0.4956,-0.49555 c 1.075,-1.07499 2.8179,-1.07499 3.8929,0 z"
         fill="#1C274C"
         id="path1"
         style="fill:#f5f5f5;fill-opacity:1" /><path
         d="m 14.5801,13.3128 c -0.404,0.404 -0.606,0.606 -0.8288,0.7798 -0.2627,0.2049 -0.547,0.3806 -0.8478,0.524 -0.255,0.1215 -0.526,0.2118 -1.0681,0.3925 L 8.97709,15.9619 C 8.71035,16.0508 8.41626,15.9814 8.21744,15.7826 8.01862,15.5837 7.9492,15.2897 8.03811,15.0229 L 8.99089,12.1646 C 9.17157,11.6225 9.26191,11.3515 9.38344,11.0965 9.52679,10.7957 9.70249,10.5114 9.90743,10.2487 10.0812,10.0259 10.2832,9.82394 10.6872,9.41993 l 4.9161,-4.91608 c 0.2637,0.69419 0.726,1.55278 1.533,2.35981 0.8071,0.80703 1.6657,1.2693 2.3599,1.53308 z"
         fill="#1C274C"
         id="path2"
         style="fill:#f5f5f5;fill-opacity:1" /><path
         d="M 20.5355,20.5355 C 22,19.0711 22,16.714 22,12 22,10.4517 22,9.15774 21.9481,8.0661 l -6.3621,6.3622 c -0.3513,0.3514 -0.6152,0.6154 -0.9122,0.847 -0.3486,0.272 -0.7258,0.5051 -1.125,0.6953 -0.34,0.1621 -0.6942,0.28 -1.1655,0.437 L 9.45143,17.3849 C 8.64568,17.6535 7.75734,17.4438 7.15678,16.8432 6.55621,16.2427 6.34651,15.3543 6.61509,14.5486 L 7.59235,11.6167 C 7.74936,11.1454 7.86732,10.7912 8.02935,10.4512 8.21958,10.052 8.45272,9.6748 8.72466,9.32615 8.9563,9.02918 9.22032,8.76528 9.57173,8.41404 L 15.9339,2.05188 C 14.8423,2 13.5483,2 12,2 7.28595,2 4.92893,2 3.46447,3.46447 2,4.92893 2,7.28595 2,12 2,16.714 2,19.0711 3.46447,20.5355 4.92893,22 7.28595,22 12,22 c 4.714,0 7.0711,0 8.5355,-1.4645 z"
         fill="#1C274C"
         id="path3"
         style="fill:#f5f5f5;fill-opacity:1" /></g></g></svg>
