<?xml version="1.0" encoding="UTF-8" standalone="no"?>
<!-- Uploaded to: SVG Repo, www.svgrepo.com, Generator: SVG Repo Mixer Tools -->

<svg
   width="560"
   height="560"
   viewBox="0 0 16.8 16.800001"
   fill="none"
   version="1.1"
   id="svg3"
   sodipodi:docname="pen.svg"
   inkscape:version="1.4.2 (ebf0e940d0, 2025-05-08)"
   xmlns:inkscape="http://www.inkscape.org/namespaces/inkscape"
   xmlns:sodipodi="http://sodipodi.sourceforge.net/DTD/sodipodi-0.dtd"
   xmlns="http://www.w3.org/2000/svg"
   xmlns:svg="http://www.w3.org/2000/svg">
  <defs
     id="defs3" />
  <sodipodi:namedview
     id="namedview3"
     pagecolor="#ffffff"
     bordercolor="#000000"
     borderopacity="0.25"
     inkscape:showpageshadow="2"
     inkscape:pageopacity="0.0"
     inkscape:pagecheckerboard="0"
     inkscape:deskcolor="#d1d1d1"
     showgrid="false"
     inkscape:zoom="1.1913696"
     inkscape:cx="152.34567"
     inkscape:cy="276.57244"
     inkscape:window-width="2048"
     inkscape:window-height="1208"
     inkscape:window-x="0"
     inkscape:window-y="0"
     inkscape:window-maximized="1"
     inkscape:current-layer="svg3" />
  <g
     id="g1"
     transform="translate(-0.2367601,0.59419865)">
    <path
       d="m 14.830574,1.6120378 c 1.0749,1.075 1.0749,2.81791 0,3.8929 l -0.4956,0.49555 c -0.1443,-0.03124 -0.326,-0.0788 -0.5331,-0.15065 -0.5543,-0.19232 -1.2828,-0.55577 -1.9681,-1.24104 -0.6853,-0.68526 -1.0487,-1.41377 -1.241,-1.9681 -0.0719,-0.20709 -0.1194,-0.38881 -0.1507,-0.53311 l 0.4956,-0.49555 c 1.075,-1.07499 2.8179,-1.07499 3.8929,0 z"
       fill="#1C274C"
       id="path1"
       style="fill:#f5f5f5;fill-opacity:1" />
    <path
       d="m 8.2168735,12.118598 c -0.404,0.404 -0.606,0.605999 -0.8288,0.779799 -0.2627,0.204901 -0.547,0.3806 -0.8478,0.524 -0.255,0.1215 -0.526,0.2118 -1.0681,0.3925 l -2.85831,0.952801 c -0.26674,0.0889 -0.56083,0.0195 -0.75965,-0.179301 -0.19882,-0.198899 -0.26824,-0.492899 -0.17933,-0.759699 l 0.95278,-2.8583 c 0.18068,-0.5421 0.27102,-0.8131 0.39255,-1.0681002 0.14335,-0.3008 0.31905,-0.5851 0.52399,-0.8478 0.17377,-0.2228 0.37577,-0.42476 0.77977,-0.82877 l 4.9161,-4.91608 c 0.2637,0.69419 0.726,1.55278 1.5330005,2.35981 0.8071,0.80703 1.6657,1.2693 2.3599,1.53308 z"
       fill="#1C274C"
       id="path2"
       style="fill:#f5f5f5;fill-opacity:1" />
  </g>
</svg>
